<?xml version="1.0" encoding="UTF-8" standalone="no"?>
<!DOCTYPE svg PUBLIC "-//W3C//DTD SVG 1.1//EN" "http://www.w3.org/Graphics/SVG/1.1/DTD/svg11.dtd">
<svg width="100%" height="100%" viewBox="0 0 1024 1024" version="1.1" xmlns="http://www.w3.org/2000/svg" xmlns:xlink="http://www.w3.org/1999/xlink" xml:space="preserve" xmlns:serif="http://www.serif.com/" style="fill-rule:evenodd;clip-rule:evenodd;stroke-linecap:round;stroke-linejoin:round;stroke-miterlimit:1.5;">
    <g>
        <g transform="matrix(1,0,0,1.01195,243.613,-6.45558)">
            <ellipse cx="390.63" cy="513.563" rx="36.095" ry="289.456"/>
        </g>
        <g transform="matrix(1,0,0,1.00984,5,-7.4957)">
            <ellipse cx="390.63" cy="513.563" rx="36.095" ry="289.456"/>
        </g>
        <g transform="matrix(0.763549,0,0,0.763549,131.764,29.2252)">
            <circle cx="497.985" cy="632.277" r="291.558" style="fill:rgb(255,229,121);stroke:black;stroke-width:13.1px;"/>
        </g>
        <g transform="matrix(0.640371,1.50849e-17,1.50849e-17,0.763549,176.535,75.9145)">
            <path d="M722.082,604.565C722.082,655.089 633.261,696.107 523.86,696.107C414.458,696.107 325.638,655.089 325.638,604.565" style="fill:none;stroke:black;stroke-width:14.19px;"/>
        </g>
        <g transform="matrix(0.763549,0,0,0.763549,134.767,120.942)">
            <ellipse cx="422.818" cy="416.009" rx="31.938" ry="66.05"/>
        </g>
        <g transform="matrix(0.763549,0,0,0.763549,243.549,120.942)">
            <ellipse cx="422.818" cy="416.009" rx="31.938" ry="66.05"/>
        </g>
        <g transform="matrix(1,0,0,1,121.669,-5.68434e-14)">
            <path d="M515.573,220.463C674.845,222.38 803.558,352.277 803.558,512C803.558,671.723 674.845,801.62 515.573,803.537C515.573,803.537 563.91,538.558 515.573,220.463Z" style="fill:rgb(118,214,255);stroke:black;stroke-width:10px;"/>
        </g>
        <g transform="matrix(1,0,0,1,282.085,-0.157976)">
            <ellipse cx="422.818" cy="416.009" rx="31.938" ry="66.05"/>
        </g>
        <g transform="matrix(1,0,0,1,-121.669,0)">
            <path d="M514.258,803.55C513.506,803.555 512.753,803.558 512,803.558C351.085,803.558 220.442,672.915 220.442,512C220.442,351.085 351.085,220.442 512,220.442C512.753,220.442 513.506,220.445 514.258,220.45C448.22,556.696 514.258,803.55 514.258,803.55Z" style="fill:rgb(118,214,255);stroke:black;stroke-width:10px;"/>
        </g>
        <g transform="matrix(1,0,0,1,-103.721,-0.157976)">
            <ellipse cx="422.818" cy="416.009" rx="31.938" ry="66.05"/>
        </g>
        <g transform="matrix(2.28252,0,0,1,-463.703,527.161)">
            <path d="M488.837,143.704C487.826,175.309 460.053,205.053 427.297,205.053C394.541,205.053 367.626,170.888 366.633,145.704C366.585,144.487 396.966,180.7 427.103,180.963C456.3,181.219 488.978,139.314 488.837,143.704Z" style="fill-opacity:0.45;"/>
        </g>
        <g transform="matrix(3.32562,0,0,2.27958,-777.215,337.872)">
            <path d="M427.103,180.963C456.3,181.219 497.964,142.943 497.802,144.097C495.06,163.531 460.053,205.053 427.297,205.053" style="fill-opacity:0.45;"/>
        </g>
        <g transform="matrix(-3.32562,0,0,2.27958,1808.5,338.726)">
            <path d="M427.103,180.963C456.3,181.219 498.867,142.943 498.704,144.097C495.962,163.531 460.053,205.053 427.297,205.053" style="fill-opacity:0.45;"/>
        </g>
        <g transform="matrix(1,0,0,-1,113.809,1241.34)">
            <path d="M722.082,604.565C722.082,655.089 656.661,695.497 547.259,695.497" style="fill:none;stroke:black;stroke-width:10px;"/>
        </g>
        <g transform="matrix(1,0,0,-1,-137.528,1241.34)">
            <path d="M500.054,695.904C390.652,695.904 325.638,655.089 325.638,604.565" style="fill:none;stroke:black;stroke-width:10px;"/>
        </g>
    </g>
    <rect id="Artboard1" x="0" y="0" width="1024" height="1024" style="fill:none;"/>
    <g id="Artboard11" serif:id="Artboard1">
        <g>
            <g transform="matrix(1,0,0,1,8,8)">
                <g transform="matrix(221,0,0,221,169.929,186.496)">
                    <path d="M0.491,-0.402L0.491,-0.345C0.491,-0.326 0.49,-0.307 0.488,-0.288C0.485,-0.247 0.476,-0.209 0.462,-0.173C0.448,-0.136 0.429,-0.104 0.405,-0.077C0.381,-0.05 0.352,-0.028 0.318,-0.012C0.284,0.004 0.244,0.012 0.2,0.012C0.183,0.012 0.165,0.01 0.146,0.007C0.128,0.004 0.109,0 0.091,-0.006C0.072,-0.012 0.055,-0.019 0.038,-0.028C0.021,-0.036 0.006,-0.046 -0.007,-0.058L0.023,-0.26C0.043,-0.241 0.064,-0.226 0.087,-0.215C0.111,-0.203 0.136,-0.197 0.164,-0.197C0.182,-0.197 0.197,-0.2 0.209,-0.205C0.222,-0.21 0.232,-0.217 0.24,-0.227C0.248,-0.236 0.255,-0.246 0.26,-0.259C0.264,-0.271 0.268,-0.284 0.27,-0.298C0.272,-0.311 0.273,-0.326 0.274,-0.34C0.274,-0.355 0.274,-0.369 0.274,-0.384C0.274,-0.436 0.272,-0.487 0.267,-0.538C0.261,-0.59 0.257,-0.641 0.253,-0.692L0.477,-0.707C0.486,-0.605 0.491,-0.504 0.491,-0.402Z" style="fill-rule:nonzero;"/>
                </g>
                <g transform="matrix(221,0,0,221,282.587,186.496)">
                    <path d="M0.487,-0.704C0.485,-0.674 0.484,-0.643 0.482,-0.613C0.48,-0.583 0.478,-0.553 0.476,-0.522L0.269,-0.512L0.264,-0.45L0.409,-0.45L0.398,-0.299L0.252,-0.294L0.247,-0.223L0.454,-0.223C0.452,-0.187 0.45,-0.151 0.448,-0.116C0.446,-0.081 0.444,-0.045 0.442,-0.01L0.021,-0L0.037,-0.704L0.487,-0.704Z" style="fill-rule:nonzero;"/>
                </g>
                <g transform="matrix(221,0,0,221,388.447,186.496)">
                    <path d="M0.644,-0.699L0.409,-0.374L0.607,-0.028L0.38,0.012L0.232,-0.199L0.224,0.021L0.021,0.029L0.037,-0.719L0.264,-0.706L0.247,-0.485L0.398,-0.719L0.644,-0.699Z" style="fill-rule:nonzero;"/>
                </g>
                <g transform="matrix(221,0,0,221,524.198,186.496)">
                    <path d="M0.652,-0.661L0.384,-0.286L0.371,0.02L0.14,0.02L0.146,-0.284L0.006,-0.646L0.255,-0.678L0.294,-0.467L0.418,-0.678L0.652,-0.661Z" style="fill-rule:nonzero;"/>
                </g>
                <g transform="matrix(221,0,0,221,658.33,186.496)">
                    <path d="M0.454,-0.278L0.434,-0.062L0.022,-0.029C0.024,-0.143 0.027,-0.256 0.029,-0.368C0.031,-0.48 0.035,-0.593 0.038,-0.707L0.292,-0.707C0.285,-0.636 0.277,-0.565 0.271,-0.493C0.264,-0.422 0.259,-0.351 0.256,-0.278C0.271,-0.278 0.286,-0.277 0.301,-0.277L0.347,-0.277C0.365,-0.277 0.383,-0.278 0.4,-0.278C0.418,-0.278 0.436,-0.278 0.454,-0.278Z" style="fill-rule:nonzero;"/>
                </g>
                <g transform="matrix(221,0,0,221,758.255,186.496)">
                    <path d="M0.454,-0.278L0.434,-0.062L0.022,-0.029C0.024,-0.143 0.027,-0.256 0.029,-0.368C0.031,-0.48 0.035,-0.593 0.038,-0.707L0.292,-0.707C0.285,-0.636 0.277,-0.565 0.271,-0.493C0.264,-0.422 0.259,-0.351 0.256,-0.278C0.271,-0.278 0.286,-0.277 0.301,-0.277L0.347,-0.277C0.365,-0.277 0.383,-0.278 0.4,-0.278C0.418,-0.278 0.436,-0.278 0.454,-0.278Z" style="fill-rule:nonzero;"/>
                </g>
            </g>
            <g transform="matrix(1,0,0,1,-4,-4)">
                <g transform="matrix(221,0,0,221,169.929,186.496)">
                    <path d="M0.491,-0.402L0.491,-0.345C0.491,-0.326 0.49,-0.307 0.488,-0.288C0.485,-0.247 0.476,-0.209 0.462,-0.173C0.448,-0.136 0.429,-0.104 0.405,-0.077C0.381,-0.05 0.352,-0.028 0.318,-0.012C0.284,0.004 0.244,0.012 0.2,0.012C0.183,0.012 0.165,0.01 0.146,0.007C0.128,0.004 0.109,0 0.091,-0.006C0.072,-0.012 0.055,-0.019 0.038,-0.028C0.021,-0.036 0.006,-0.046 -0.007,-0.058L0.023,-0.26C0.043,-0.241 0.064,-0.226 0.087,-0.215C0.111,-0.203 0.136,-0.197 0.164,-0.197C0.182,-0.197 0.197,-0.2 0.209,-0.205C0.222,-0.21 0.232,-0.217 0.24,-0.227C0.248,-0.236 0.255,-0.246 0.26,-0.259C0.264,-0.271 0.268,-0.284 0.27,-0.298C0.272,-0.311 0.273,-0.326 0.274,-0.34C0.274,-0.355 0.274,-0.369 0.274,-0.384C0.274,-0.436 0.272,-0.487 0.267,-0.538C0.261,-0.59 0.257,-0.641 0.253,-0.692L0.477,-0.707C0.486,-0.605 0.491,-0.504 0.491,-0.402Z" style="fill-rule:nonzero;"/>
                </g>
                <g transform="matrix(221,0,0,221,282.587,186.496)">
                    <path d="M0.487,-0.704C0.485,-0.674 0.484,-0.643 0.482,-0.613C0.48,-0.583 0.478,-0.553 0.476,-0.522L0.269,-0.512L0.264,-0.45L0.409,-0.45L0.398,-0.299L0.252,-0.294L0.247,-0.223L0.454,-0.223C0.452,-0.187 0.45,-0.151 0.448,-0.116C0.446,-0.081 0.444,-0.045 0.442,-0.01L0.021,-0L0.037,-0.704L0.487,-0.704Z" style="fill-rule:nonzero;"/>
                </g>
                <g transform="matrix(221,0,0,221,388.447,186.496)">
                    <path d="M0.644,-0.699L0.409,-0.374L0.607,-0.028L0.38,0.012L0.232,-0.199L0.224,0.021L0.021,0.029L0.037,-0.719L0.264,-0.706L0.247,-0.485L0.398,-0.719L0.644,-0.699Z" style="fill-rule:nonzero;"/>
                </g>
                <g transform="matrix(221,0,0,221,524.198,186.496)">
                    <path d="M0.652,-0.661L0.384,-0.286L0.371,0.02L0.14,0.02L0.146,-0.284L0.006,-0.646L0.255,-0.678L0.294,-0.467L0.418,-0.678L0.652,-0.661Z" style="fill-rule:nonzero;"/>
                </g>
                <g transform="matrix(221,0,0,221,658.33,186.496)">
                    <path d="M0.454,-0.278L0.434,-0.062L0.022,-0.029C0.024,-0.143 0.027,-0.256 0.029,-0.368C0.031,-0.48 0.035,-0.593 0.038,-0.707L0.292,-0.707C0.285,-0.636 0.277,-0.565 0.271,-0.493C0.264,-0.422 0.259,-0.351 0.256,-0.278C0.271,-0.278 0.286,-0.277 0.301,-0.277L0.347,-0.277C0.365,-0.277 0.383,-0.278 0.4,-0.278C0.418,-0.278 0.436,-0.278 0.454,-0.278Z" style="fill-rule:nonzero;"/>
                </g>
                <g transform="matrix(221,0,0,221,758.255,186.496)">
                    <path d="M0.454,-0.278L0.434,-0.062L0.022,-0.029C0.024,-0.143 0.027,-0.256 0.029,-0.368C0.031,-0.48 0.035,-0.593 0.038,-0.707L0.292,-0.707C0.285,-0.636 0.277,-0.565 0.271,-0.493C0.264,-0.422 0.259,-0.351 0.256,-0.278C0.271,-0.278 0.286,-0.277 0.301,-0.277L0.347,-0.277C0.365,-0.277 0.383,-0.278 0.4,-0.278C0.418,-0.278 0.436,-0.278 0.454,-0.278Z" style="fill-rule:nonzero;"/>
                </g>
            </g>
            <g transform="matrix(221,0,0,221,169.929,186.496)">
                <path d="M0.491,-0.402L0.491,-0.345C0.491,-0.326 0.49,-0.307 0.488,-0.288C0.485,-0.247 0.476,-0.209 0.462,-0.173C0.448,-0.136 0.429,-0.104 0.405,-0.077C0.381,-0.05 0.352,-0.028 0.318,-0.012C0.284,0.004 0.244,0.012 0.2,0.012C0.183,0.012 0.165,0.01 0.146,0.007C0.128,0.004 0.109,0 0.091,-0.006C0.072,-0.012 0.055,-0.019 0.038,-0.028C0.021,-0.036 0.006,-0.046 -0.007,-0.058L0.023,-0.26C0.043,-0.241 0.064,-0.226 0.087,-0.215C0.111,-0.203 0.136,-0.197 0.164,-0.197C0.182,-0.197 0.197,-0.2 0.209,-0.205C0.222,-0.21 0.232,-0.217 0.24,-0.227C0.248,-0.236 0.255,-0.246 0.26,-0.259C0.264,-0.271 0.268,-0.284 0.27,-0.298C0.272,-0.311 0.273,-0.326 0.274,-0.34C0.274,-0.355 0.274,-0.369 0.274,-0.384C0.274,-0.436 0.272,-0.487 0.267,-0.538C0.261,-0.59 0.257,-0.641 0.253,-0.692L0.477,-0.707C0.486,-0.605 0.491,-0.504 0.491,-0.402Z" style="fill:white;fill-rule:nonzero;"/>
            </g>
            <g transform="matrix(221,0,0,221,282.587,186.496)">
                <path d="M0.487,-0.704C0.485,-0.674 0.484,-0.643 0.482,-0.613C0.48,-0.583 0.478,-0.553 0.476,-0.522L0.269,-0.512L0.264,-0.45L0.409,-0.45L0.398,-0.299L0.252,-0.294L0.247,-0.223L0.454,-0.223C0.452,-0.187 0.45,-0.151 0.448,-0.116C0.446,-0.081 0.444,-0.045 0.442,-0.01L0.021,-0L0.037,-0.704L0.487,-0.704Z" style="fill:white;fill-rule:nonzero;"/>
            </g>
            <g transform="matrix(221,0,0,221,388.447,186.496)">
                <path d="M0.644,-0.699L0.409,-0.374L0.607,-0.028L0.38,0.012L0.232,-0.199L0.224,0.021L0.021,0.029L0.037,-0.719L0.264,-0.706L0.247,-0.485L0.398,-0.719L0.644,-0.699Z" style="fill:white;fill-rule:nonzero;"/>
            </g>
            <g transform="matrix(221,0,0,221,524.198,186.496)">
                <path d="M0.652,-0.661L0.384,-0.286L0.371,0.02L0.14,0.02L0.146,-0.284L0.006,-0.646L0.255,-0.678L0.294,-0.467L0.418,-0.678L0.652,-0.661Z" style="fill:white;fill-rule:nonzero;"/>
            </g>
            <g transform="matrix(221,0,0,221,658.33,186.496)">
                <path d="M0.454,-0.278L0.434,-0.062L0.022,-0.029C0.024,-0.143 0.027,-0.256 0.029,-0.368C0.031,-0.48 0.035,-0.593 0.038,-0.707L0.292,-0.707C0.285,-0.636 0.277,-0.565 0.271,-0.493C0.264,-0.422 0.259,-0.351 0.256,-0.278C0.271,-0.278 0.286,-0.277 0.301,-0.277L0.347,-0.277C0.365,-0.277 0.383,-0.278 0.4,-0.278C0.418,-0.278 0.436,-0.278 0.454,-0.278Z" style="fill:white;fill-rule:nonzero;"/>
            </g>
            <g transform="matrix(221,0,0,221,758.255,186.496)">
                <path d="M0.454,-0.278L0.434,-0.062L0.022,-0.029C0.024,-0.143 0.027,-0.256 0.029,-0.368C0.031,-0.48 0.035,-0.593 0.038,-0.707L0.292,-0.707C0.285,-0.636 0.277,-0.565 0.271,-0.493C0.264,-0.422 0.259,-0.351 0.256,-0.278C0.271,-0.278 0.286,-0.277 0.301,-0.277L0.347,-0.277C0.365,-0.277 0.383,-0.278 0.4,-0.278C0.418,-0.278 0.436,-0.278 0.454,-0.278Z" style="fill:white;fill-rule:nonzero;"/>
            </g>
        </g>
        <g>
            <g transform="matrix(1,0,0,1,8,8)">
                <g transform="matrix(221,0,0,221,230.227,1001.87)">
                    <path d="M0.487,-0.704C0.485,-0.674 0.484,-0.643 0.482,-0.613C0.48,-0.583 0.478,-0.553 0.476,-0.522L0.269,-0.512L0.269,-0.45L0.448,-0.45L0.438,-0.299L0.268,-0.294L0.269,-0.005L0.021,-0L0.037,-0.704L0.487,-0.704Z" style="fill-rule:nonzero;"/>
                </g>
                <g transform="matrix(221,0,0,221,323.785,1001.87)">
                    <path d="M0.641,-0.042L0.398,-0.011L0.369,-0.121L0.258,-0.121L0.233,-0.011L-0.016,-0.035L0.179,-0.686L0.45,-0.699L0.641,-0.042ZM0.352,-0.271L0.314,-0.44L0.278,-0.271L0.352,-0.271Z" style="fill-rule:nonzero;"/>
                </g>
                <g transform="matrix(221,0,0,221,459.321,1001.87)">
                    <path d="M0.509,-0.687L0.481,-0.48C0.472,-0.483 0.463,-0.485 0.453,-0.486C0.444,-0.487 0.434,-0.487 0.425,-0.487C0.401,-0.487 0.378,-0.484 0.356,-0.478C0.334,-0.471 0.315,-0.462 0.298,-0.449C0.281,-0.436 0.268,-0.419 0.258,-0.4C0.248,-0.38 0.243,-0.357 0.243,-0.331C0.243,-0.314 0.246,-0.299 0.251,-0.287C0.257,-0.275 0.264,-0.264 0.274,-0.256C0.284,-0.248 0.295,-0.242 0.309,-0.238C0.322,-0.234 0.337,-0.232 0.353,-0.232C0.365,-0.232 0.377,-0.234 0.39,-0.236C0.403,-0.239 0.416,-0.242 0.429,-0.247C0.441,-0.251 0.454,-0.256 0.466,-0.261C0.478,-0.267 0.489,-0.272 0.499,-0.278L0.479,-0.049C0.467,-0.042 0.453,-0.037 0.438,-0.031C0.423,-0.026 0.408,-0.022 0.393,-0.018C0.377,-0.015 0.361,-0.012 0.346,-0.01C0.33,-0.008 0.315,-0.007 0.301,-0.007C0.259,-0.007 0.221,-0.014 0.185,-0.03C0.149,-0.045 0.118,-0.066 0.092,-0.093C0.065,-0.119 0.045,-0.151 0.03,-0.187C0.014,-0.224 0.007,-0.263 0.007,-0.305C0.007,-0.36 0.015,-0.413 0.031,-0.462C0.047,-0.511 0.07,-0.555 0.101,-0.592C0.132,-0.629 0.17,-0.658 0.216,-0.68C0.262,-0.701 0.314,-0.712 0.374,-0.712C0.396,-0.712 0.42,-0.71 0.443,-0.707C0.467,-0.703 0.489,-0.696 0.509,-0.687Z" style="fill-rule:nonzero;"/>
                </g>
                <g transform="matrix(221,0,0,221,573.058,1001.87)">
                    <path d="M0.487,-0.704C0.485,-0.674 0.484,-0.643 0.482,-0.613C0.48,-0.583 0.478,-0.553 0.476,-0.522L0.269,-0.512L0.264,-0.45L0.409,-0.45L0.398,-0.299L0.252,-0.294L0.247,-0.223L0.454,-0.223C0.452,-0.187 0.45,-0.151 0.448,-0.116C0.446,-0.081 0.444,-0.045 0.442,-0.01L0.021,-0L0.037,-0.704L0.487,-0.704Z" style="fill-rule:nonzero;"/>
                </g>
                <g transform="matrix(221,0,0,221,678.918,1001.87)">
                    <path d="M0.525,-0.26C0.525,-0.215 0.517,-0.176 0.502,-0.143C0.486,-0.109 0.465,-0.082 0.438,-0.06C0.411,-0.037 0.38,-0.021 0.344,-0.01C0.308,0.001 0.269,0.007 0.228,0.007C0.212,0.007 0.195,0.005 0.176,0C0.156,-0.004 0.137,-0.009 0.118,-0.015C0.098,-0.022 0.079,-0.029 0.061,-0.036C0.043,-0.043 0.027,-0.05 0.013,-0.057L0.035,-0.258C0.062,-0.241 0.093,-0.229 0.127,-0.22C0.16,-0.211 0.194,-0.207 0.226,-0.207C0.232,-0.207 0.24,-0.207 0.249,-0.208C0.257,-0.208 0.266,-0.21 0.274,-0.212C0.282,-0.215 0.288,-0.218 0.294,-0.223C0.299,-0.228 0.302,-0.235 0.302,-0.244C0.302,-0.25 0.3,-0.256 0.296,-0.26C0.292,-0.264 0.287,-0.268 0.281,-0.271C0.275,-0.274 0.268,-0.276 0.26,-0.277C0.252,-0.279 0.245,-0.28 0.237,-0.28C0.23,-0.281 0.223,-0.281 0.216,-0.281L0.201,-0.281C0.173,-0.281 0.147,-0.286 0.124,-0.296C0.101,-0.306 0.082,-0.319 0.065,-0.337C0.049,-0.354 0.036,-0.375 0.027,-0.399C0.018,-0.423 0.013,-0.449 0.013,-0.477C0.013,-0.515 0.021,-0.549 0.036,-0.58C0.052,-0.61 0.073,-0.636 0.098,-0.657C0.124,-0.679 0.154,-0.695 0.188,-0.707C0.221,-0.718 0.256,-0.724 0.292,-0.724C0.307,-0.724 0.324,-0.723 0.341,-0.722C0.358,-0.721 0.375,-0.719 0.391,-0.716C0.408,-0.713 0.424,-0.709 0.44,-0.705C0.456,-0.7 0.472,-0.694 0.486,-0.688L0.467,-0.489C0.445,-0.497 0.422,-0.503 0.398,-0.508C0.373,-0.513 0.35,-0.516 0.327,-0.516C0.322,-0.516 0.317,-0.516 0.31,-0.515C0.304,-0.515 0.297,-0.515 0.289,-0.514C0.282,-0.513 0.275,-0.512 0.267,-0.51C0.26,-0.509 0.253,-0.506 0.247,-0.504C0.241,-0.501 0.236,-0.497 0.233,-0.493C0.229,-0.488 0.228,-0.483 0.228,-0.477C0.228,-0.469 0.231,-0.464 0.236,-0.459C0.241,-0.455 0.248,-0.451 0.256,-0.449C0.264,-0.447 0.272,-0.445 0.282,-0.444C0.292,-0.443 0.301,-0.442 0.311,-0.442C0.32,-0.442 0.329,-0.442 0.337,-0.442C0.345,-0.442 0.352,-0.442 0.357,-0.441C0.383,-0.44 0.406,-0.434 0.427,-0.425C0.448,-0.415 0.466,-0.403 0.48,-0.387C0.495,-0.372 0.506,-0.353 0.513,-0.331C0.521,-0.31 0.525,-0.286 0.525,-0.26Z" style="fill-rule:nonzero;"/>
                </g>
            </g>
            <g transform="matrix(1,0,0,1,-4,-4)">
                <g transform="matrix(221,0,0,221,230.227,1001.87)">
                    <path d="M0.487,-0.704C0.485,-0.674 0.484,-0.643 0.482,-0.613C0.48,-0.583 0.478,-0.553 0.476,-0.522L0.269,-0.512L0.269,-0.45L0.448,-0.45L0.438,-0.299L0.268,-0.294L0.269,-0.005L0.021,-0L0.037,-0.704L0.487,-0.704Z" style="fill-rule:nonzero;"/>
                </g>
                <g transform="matrix(221,0,0,221,323.785,1001.87)">
                    <path d="M0.641,-0.042L0.398,-0.011L0.369,-0.121L0.258,-0.121L0.233,-0.011L-0.016,-0.035L0.179,-0.686L0.45,-0.699L0.641,-0.042ZM0.352,-0.271L0.314,-0.44L0.278,-0.271L0.352,-0.271Z" style="fill-rule:nonzero;"/>
                </g>
                <g transform="matrix(221,0,0,221,459.321,1001.87)">
                    <path d="M0.509,-0.687L0.481,-0.48C0.472,-0.483 0.463,-0.485 0.453,-0.486C0.444,-0.487 0.434,-0.487 0.425,-0.487C0.401,-0.487 0.378,-0.484 0.356,-0.478C0.334,-0.471 0.315,-0.462 0.298,-0.449C0.281,-0.436 0.268,-0.419 0.258,-0.4C0.248,-0.38 0.243,-0.357 0.243,-0.331C0.243,-0.314 0.246,-0.299 0.251,-0.287C0.257,-0.275 0.264,-0.264 0.274,-0.256C0.284,-0.248 0.295,-0.242 0.309,-0.238C0.322,-0.234 0.337,-0.232 0.353,-0.232C0.365,-0.232 0.377,-0.234 0.39,-0.236C0.403,-0.239 0.416,-0.242 0.429,-0.247C0.441,-0.251 0.454,-0.256 0.466,-0.261C0.478,-0.267 0.489,-0.272 0.499,-0.278L0.479,-0.049C0.467,-0.042 0.453,-0.037 0.438,-0.031C0.423,-0.026 0.408,-0.022 0.393,-0.018C0.377,-0.015 0.361,-0.012 0.346,-0.01C0.33,-0.008 0.315,-0.007 0.301,-0.007C0.259,-0.007 0.221,-0.014 0.185,-0.03C0.149,-0.045 0.118,-0.066 0.092,-0.093C0.065,-0.119 0.045,-0.151 0.03,-0.187C0.014,-0.224 0.007,-0.263 0.007,-0.305C0.007,-0.36 0.015,-0.413 0.031,-0.462C0.047,-0.511 0.07,-0.555 0.101,-0.592C0.132,-0.629 0.17,-0.658 0.216,-0.68C0.262,-0.701 0.314,-0.712 0.374,-0.712C0.396,-0.712 0.42,-0.71 0.443,-0.707C0.467,-0.703 0.489,-0.696 0.509,-0.687Z" style="fill-rule:nonzero;"/>
                </g>
                <g transform="matrix(221,0,0,221,573.058,1001.87)">
                    <path d="M0.487,-0.704C0.485,-0.674 0.484,-0.643 0.482,-0.613C0.48,-0.583 0.478,-0.553 0.476,-0.522L0.269,-0.512L0.264,-0.45L0.409,-0.45L0.398,-0.299L0.252,-0.294L0.247,-0.223L0.454,-0.223C0.452,-0.187 0.45,-0.151 0.448,-0.116C0.446,-0.081 0.444,-0.045 0.442,-0.01L0.021,-0L0.037,-0.704L0.487,-0.704Z" style="fill-rule:nonzero;"/>
                </g>
                <g transform="matrix(221,0,0,221,678.918,1001.87)">
                    <path d="M0.525,-0.26C0.525,-0.215 0.517,-0.176 0.502,-0.143C0.486,-0.109 0.465,-0.082 0.438,-0.06C0.411,-0.037 0.38,-0.021 0.344,-0.01C0.308,0.001 0.269,0.007 0.228,0.007C0.212,0.007 0.195,0.005 0.176,0C0.156,-0.004 0.137,-0.009 0.118,-0.015C0.098,-0.022 0.079,-0.029 0.061,-0.036C0.043,-0.043 0.027,-0.05 0.013,-0.057L0.035,-0.258C0.062,-0.241 0.093,-0.229 0.127,-0.22C0.16,-0.211 0.194,-0.207 0.226,-0.207C0.232,-0.207 0.24,-0.207 0.249,-0.208C0.257,-0.208 0.266,-0.21 0.274,-0.212C0.282,-0.215 0.288,-0.218 0.294,-0.223C0.299,-0.228 0.302,-0.235 0.302,-0.244C0.302,-0.25 0.3,-0.256 0.296,-0.26C0.292,-0.264 0.287,-0.268 0.281,-0.271C0.275,-0.274 0.268,-0.276 0.26,-0.277C0.252,-0.279 0.245,-0.28 0.237,-0.28C0.23,-0.281 0.223,-0.281 0.216,-0.281L0.201,-0.281C0.173,-0.281 0.147,-0.286 0.124,-0.296C0.101,-0.306 0.082,-0.319 0.065,-0.337C0.049,-0.354 0.036,-0.375 0.027,-0.399C0.018,-0.423 0.013,-0.449 0.013,-0.477C0.013,-0.515 0.021,-0.549 0.036,-0.58C0.052,-0.61 0.073,-0.636 0.098,-0.657C0.124,-0.679 0.154,-0.695 0.188,-0.707C0.221,-0.718 0.256,-0.724 0.292,-0.724C0.307,-0.724 0.324,-0.723 0.341,-0.722C0.358,-0.721 0.375,-0.719 0.391,-0.716C0.408,-0.713 0.424,-0.709 0.44,-0.705C0.456,-0.7 0.472,-0.694 0.486,-0.688L0.467,-0.489C0.445,-0.497 0.422,-0.503 0.398,-0.508C0.373,-0.513 0.35,-0.516 0.327,-0.516C0.322,-0.516 0.317,-0.516 0.31,-0.515C0.304,-0.515 0.297,-0.515 0.289,-0.514C0.282,-0.513 0.275,-0.512 0.267,-0.51C0.26,-0.509 0.253,-0.506 0.247,-0.504C0.241,-0.501 0.236,-0.497 0.233,-0.493C0.229,-0.488 0.228,-0.483 0.228,-0.477C0.228,-0.469 0.231,-0.464 0.236,-0.459C0.241,-0.455 0.248,-0.451 0.256,-0.449C0.264,-0.447 0.272,-0.445 0.282,-0.444C0.292,-0.443 0.301,-0.442 0.311,-0.442C0.32,-0.442 0.329,-0.442 0.337,-0.442C0.345,-0.442 0.352,-0.442 0.357,-0.441C0.383,-0.44 0.406,-0.434 0.427,-0.425C0.448,-0.415 0.466,-0.403 0.48,-0.387C0.495,-0.372 0.506,-0.353 0.513,-0.331C0.521,-0.31 0.525,-0.286 0.525,-0.26Z" style="fill-rule:nonzero;"/>
                </g>
            </g>
            <g transform="matrix(221,0,0,221,230.227,1001.87)">
                <path d="M0.487,-0.704C0.485,-0.674 0.484,-0.643 0.482,-0.613C0.48,-0.583 0.478,-0.553 0.476,-0.522L0.269,-0.512L0.269,-0.45L0.448,-0.45L0.438,-0.299L0.268,-0.294L0.269,-0.005L0.021,-0L0.037,-0.704L0.487,-0.704Z" style="fill:white;fill-rule:nonzero;"/>
            </g>
            <g transform="matrix(221,0,0,221,323.785,1001.87)">
                <path d="M0.641,-0.042L0.398,-0.011L0.369,-0.121L0.258,-0.121L0.233,-0.011L-0.016,-0.035L0.179,-0.686L0.45,-0.699L0.641,-0.042ZM0.352,-0.271L0.314,-0.44L0.278,-0.271L0.352,-0.271Z" style="fill:white;fill-rule:nonzero;"/>
            </g>
            <g transform="matrix(221,0,0,221,459.321,1001.87)">
                <path d="M0.509,-0.687L0.481,-0.48C0.472,-0.483 0.463,-0.485 0.453,-0.486C0.444,-0.487 0.434,-0.487 0.425,-0.487C0.401,-0.487 0.378,-0.484 0.356,-0.478C0.334,-0.471 0.315,-0.462 0.298,-0.449C0.281,-0.436 0.268,-0.419 0.258,-0.4C0.248,-0.38 0.243,-0.357 0.243,-0.331C0.243,-0.314 0.246,-0.299 0.251,-0.287C0.257,-0.275 0.264,-0.264 0.274,-0.256C0.284,-0.248 0.295,-0.242 0.309,-0.238C0.322,-0.234 0.337,-0.232 0.353,-0.232C0.365,-0.232 0.377,-0.234 0.39,-0.236C0.403,-0.239 0.416,-0.242 0.429,-0.247C0.441,-0.251 0.454,-0.256 0.466,-0.261C0.478,-0.267 0.489,-0.272 0.499,-0.278L0.479,-0.049C0.467,-0.042 0.453,-0.037 0.438,-0.031C0.423,-0.026 0.408,-0.022 0.393,-0.018C0.377,-0.015 0.361,-0.012 0.346,-0.01C0.33,-0.008 0.315,-0.007 0.301,-0.007C0.259,-0.007 0.221,-0.014 0.185,-0.03C0.149,-0.045 0.118,-0.066 0.092,-0.093C0.065,-0.119 0.045,-0.151 0.03,-0.187C0.014,-0.224 0.007,-0.263 0.007,-0.305C0.007,-0.36 0.015,-0.413 0.031,-0.462C0.047,-0.511 0.07,-0.555 0.101,-0.592C0.132,-0.629 0.17,-0.658 0.216,-0.68C0.262,-0.701 0.314,-0.712 0.374,-0.712C0.396,-0.712 0.42,-0.71 0.443,-0.707C0.467,-0.703 0.489,-0.696 0.509,-0.687Z" style="fill:white;fill-rule:nonzero;"/>
            </g>
            <g transform="matrix(221,0,0,221,573.058,1001.87)">
                <path d="M0.487,-0.704C0.485,-0.674 0.484,-0.643 0.482,-0.613C0.48,-0.583 0.478,-0.553 0.476,-0.522L0.269,-0.512L0.264,-0.45L0.409,-0.45L0.398,-0.299L0.252,-0.294L0.247,-0.223L0.454,-0.223C0.452,-0.187 0.45,-0.151 0.448,-0.116C0.446,-0.081 0.444,-0.045 0.442,-0.01L0.021,-0L0.037,-0.704L0.487,-0.704Z" style="fill:white;fill-rule:nonzero;"/>
            </g>
            <g transform="matrix(221,0,0,221,678.918,1001.87)">
                <path d="M0.525,-0.26C0.525,-0.215 0.517,-0.176 0.502,-0.143C0.486,-0.109 0.465,-0.082 0.438,-0.06C0.411,-0.037 0.38,-0.021 0.344,-0.01C0.308,0.001 0.269,0.007 0.228,0.007C0.212,0.007 0.195,0.005 0.176,0C0.156,-0.004 0.137,-0.009 0.118,-0.015C0.098,-0.022 0.079,-0.029 0.061,-0.036C0.043,-0.043 0.027,-0.05 0.013,-0.057L0.035,-0.258C0.062,-0.241 0.093,-0.229 0.127,-0.22C0.16,-0.211 0.194,-0.207 0.226,-0.207C0.232,-0.207 0.24,-0.207 0.249,-0.208C0.257,-0.208 0.266,-0.21 0.274,-0.212C0.282,-0.215 0.288,-0.218 0.294,-0.223C0.299,-0.228 0.302,-0.235 0.302,-0.244C0.302,-0.25 0.3,-0.256 0.296,-0.26C0.292,-0.264 0.287,-0.268 0.281,-0.271C0.275,-0.274 0.268,-0.276 0.26,-0.277C0.252,-0.279 0.245,-0.28 0.237,-0.28C0.23,-0.281 0.223,-0.281 0.216,-0.281L0.201,-0.281C0.173,-0.281 0.147,-0.286 0.124,-0.296C0.101,-0.306 0.082,-0.319 0.065,-0.337C0.049,-0.354 0.036,-0.375 0.027,-0.399C0.018,-0.423 0.013,-0.449 0.013,-0.477C0.013,-0.515 0.021,-0.549 0.036,-0.58C0.052,-0.61 0.073,-0.636 0.098,-0.657C0.124,-0.679 0.154,-0.695 0.188,-0.707C0.221,-0.718 0.256,-0.724 0.292,-0.724C0.307,-0.724 0.324,-0.723 0.341,-0.722C0.358,-0.721 0.375,-0.719 0.391,-0.716C0.408,-0.713 0.424,-0.709 0.44,-0.705C0.456,-0.7 0.472,-0.694 0.486,-0.688L0.467,-0.489C0.445,-0.497 0.422,-0.503 0.398,-0.508C0.373,-0.513 0.35,-0.516 0.327,-0.516C0.322,-0.516 0.317,-0.516 0.31,-0.515C0.304,-0.515 0.297,-0.515 0.289,-0.514C0.282,-0.513 0.275,-0.512 0.267,-0.51C0.26,-0.509 0.253,-0.506 0.247,-0.504C0.241,-0.501 0.236,-0.497 0.233,-0.493C0.229,-0.488 0.228,-0.483 0.228,-0.477C0.228,-0.469 0.231,-0.464 0.236,-0.459C0.241,-0.455 0.248,-0.451 0.256,-0.449C0.264,-0.447 0.272,-0.445 0.282,-0.444C0.292,-0.443 0.301,-0.442 0.311,-0.442C0.32,-0.442 0.329,-0.442 0.337,-0.442C0.345,-0.442 0.352,-0.442 0.357,-0.441C0.383,-0.44 0.406,-0.434 0.427,-0.425C0.448,-0.415 0.466,-0.403 0.48,-0.387C0.495,-0.372 0.506,-0.353 0.513,-0.331C0.521,-0.31 0.525,-0.286 0.525,-0.26Z" style="fill:white;fill-rule:nonzero;"/>
            </g>
        </g>
    </g>
</svg>
