<?xml version="1.0" encoding="UTF-8" standalone="no"?>
<!DOCTYPE svg PUBLIC "-//W3C//DTD SVG 1.1//EN" "http://www.w3.org/Graphics/SVG/1.1/DTD/svg11.dtd">
<svg width="100%" height="100%" viewBox="0 0 1024 1024" version="1.1" xmlns="http://www.w3.org/2000/svg" xmlns:xlink="http://www.w3.org/1999/xlink" xml:space="preserve" xmlns:serif="http://www.serif.com/" style="fill-rule:evenodd;clip-rule:evenodd;stroke-linejoin:round;stroke-miterlimit:2;">
    <rect id="Artboard1" x="0" y="0" width="1024" height="1024" style="fill:none;"/>
    <g id="Artboard11" serif:id="Artboard1">
        <g transform="matrix(8.5004,0,0,8.5004,-595.656,-1162.58)">
            <g id="Layer1">
                <g>
                    <path d="M189.306,144.199C189.306,140.778 186.529,138 183.108,138L77.505,138C74.084,138 71.306,140.778 71.306,144.199L71.306,249.801C71.306,253.222 74.084,256 77.505,256L183.108,256C186.529,256 189.306,253.222 189.306,249.801L189.306,144.199Z" style="fill:rgb(251,222,39);"/>
                    <path d="M189.306,144.199L189.306,249.801C189.306,253.222 186.529,256 183.108,256L77.505,256C74.084,256 71.306,253.222 71.306,249.801L71.306,144.199C71.306,140.778 74.084,138 77.505,138L183.108,138C186.529,138 189.306,140.778 189.306,144.199ZM186.365,144.199C186.365,142.401 184.905,140.941 183.108,140.941L77.505,140.941C75.707,140.941 74.247,142.401 74.247,144.199L74.247,249.801C74.247,251.599 75.707,253.059 77.505,253.059L183.108,253.059C184.905,253.059 186.365,251.599 186.365,249.801L186.365,144.199Z" style="fill:rgb(35,31,32);"/>
                    <g transform="matrix(1,0,0,1,-74.2984,-191.073)">
                        <g transform="matrix(100,0,0,100,170.734,423.425)">
                            <path d="M0.487,-0.704C0.485,-0.674 0.484,-0.643 0.482,-0.613C0.48,-0.583 0.478,-0.553 0.476,-0.522L0.269,-0.512L0.269,-0.45L0.448,-0.45L0.438,-0.299L0.268,-0.294L0.269,-0.005L0.021,-0L0.037,-0.704L0.487,-0.704Z" style="fill:rgb(35,31,32);fill-rule:nonzero;"/>
                        </g>
                    </g>
                    <g transform="matrix(1,0,0,1,5.68011,-117.332)">
                        <g transform="matrix(41.6667,0,0,41.6667,153.385,365.932)">
                            <path d="M0.521,-0.234L0.479,-0.233L0.47,-0.022L0.249,-0.003L0.261,-0.229L0,-0.223L0.072,-0.651L0.257,-0.651L0.203,-0.353L0.268,-0.354L0.286,-0.725L0.498,-0.725L0.483,-0.362L0.521,-0.364L0.521,-0.234Z" style="fill:rgb(35,31,32);fill-rule:nonzero;"/>
                        </g>
                    </g>
                </g>
            </g>
        </g>
    </g>
</svg>
